<?xml version="1.0" encoding="UTF-8"?>
<svg id="_レイヤー_2" data-name="レイヤー 2" xmlns="http://www.w3.org/2000/svg" viewBox="0 0 81.98 81.98">
  <g id="_レイヤー_1-2" data-name="レイヤー 1">
    <path d="M24.01.29c-4.36.21-7.34.9-9.94,1.92-2.69,1.05-4.98,2.46-7.25,4.74-2.27,2.28-3.67,4.57-4.71,7.27-1.01,2.61-1.69,5.59-1.89,9.95C.03,28.54-.02,29.94,0,41.07c.02,11.13.07,12.53.28,16.9.21,4.36.9,7.34,1.92,9.94,1.05,2.69,2.46,4.98,4.74,7.25,2.28,2.27,4.57,3.67,7.27,4.71,2.61,1.01,5.59,1.69,9.95,1.89,4.36.19,5.77.24,16.9.21,11.13-.02,12.53-.07,16.9-.28,4.37-.21,7.33-.91,9.94-1.92,2.69-1.05,4.98-2.46,7.25-4.74s3.67-4.57,4.71-7.27c1.01-2.61,1.7-5.59,1.89-9.95.19-4.38.24-5.77.21-16.9-.02-11.13-.07-12.53-.28-16.9s-.9-7.34-1.92-9.95c-1.05-2.69-2.46-4.98-4.74-7.25-2.28-2.28-4.57-3.67-7.27-4.71-2.61-1.01-5.59-1.7-9.95-1.89S52.05-.02,40.91,0c-11.13.02-12.53.07-16.9.28M24.49,74.39c-4-.17-6.17-.84-7.61-1.39-1.92-.74-3.28-1.63-4.72-3.06s-2.33-2.8-3.07-4.71c-.56-1.45-1.24-3.61-1.42-7.61-.2-4.32-.25-5.62-.27-16.56s.02-12.24.21-16.56c.17-3.99.84-6.17,1.39-7.61.74-1.92,1.63-3.28,3.06-4.72s2.8-2.33,4.71-3.08c1.44-.56,3.61-1.23,7.61-1.42,4.32-.2,5.62-.25,16.56-.27,10.94-.02,12.24.02,16.57.21,3.99.17,6.17.84,7.61,1.39,1.92.74,3.28,1.62,4.72,3.06s2.33,2.79,3.08,4.71c.56,1.44,1.24,3.61,1.42,7.6.21,4.32.25,5.62.27,16.56.02,10.94-.02,12.24-.21,16.56-.17,4-.84,6.17-1.39,7.62-.74,1.91-1.63,3.28-3.06,4.72s-2.79,2.33-4.71,3.07c-1.44.56-3.61,1.24-7.6,1.43-4.32.2-5.62.25-16.56.27-10.95.02-12.24-.02-16.56-.21M57.91,19.08c0,2.72,2.21,4.92,4.93,4.91s4.92-2.21,4.91-4.93c0-2.72-2.21-4.92-4.93-4.91,0,0,0,0,0,0-2.72,0-4.91,2.21-4.91,4.93M19.94,41.03c.02,11.63,9.46,21.03,21.09,21.01,11.62-.02,21.03-9.46,21.01-21.09s-9.47-21.03-21.09-21.01c-11.62.02-21.03,9.47-21.01,21.09M27.33,41.02c-.01-7.55,6.09-13.68,13.64-13.69,7.55-.01,13.68,6.09,13.69,13.64.01,7.55-6.09,13.68-13.64,13.69-7.55.02-13.68-6.09-13.69-13.63h0"/>
  </g>
</svg>