<?xml version="1.0" encoding="UTF-8"?>
<svg id="_レイヤー_1" data-name="レイヤー 1" xmlns="http://www.w3.org/2000/svg" viewBox="0 0 264.48 545.88">
  <defs>
    <style>
      .cls-1 {
        fill: #040000;
      }

      .cls-2 {
        fill: #c3302c;
      }
    </style>
  </defs>
  <path class="cls-2" d="M123.9,61.75c.57-2.41-2.87-7.92-5.16-8.3-2.63-.43-6.96,2.67-8.58,5.42-1.03,1.75,1.52,5.65,2.47,8.58,1.07.33,2.14.66,3.21.99,2.85-2.19,7.41-3.98,8.05-6.7"/>
  <path class="cls-2" d="M57.88,199.33c-9.57,6.14-14.52,12.95-14.29,21.05,10.07-4.9,19.25-9.8,22.69-21.71-3.04-1.94-5.67-1.09-8.4.66"/>
  <path class="cls-1" d="M264.31,252.23c-.24-.87-.63-1.66-1.05-2.4.51.96.45,1.13.38,1.19-.01,0-.03.02-.04.02-.27-.61-.62-1.26-1.05-1.94.13.13.56.81.08-.29-.59-.87-1.23-1.65-1.89-2.4.51.62.8,1.12,1.03,1.54-.65-.9-1.42-1.82-2.3-2.74-.25-.39-.8-1.06-.72-1.11-.15.26-2.23-1.99-3.62-2.89l-.43-.11c-.83-.58-1.7-1.13-2.6-1.63.55.28,1.09.58,1.6.9-.66-.66-1.73-1.17-2.93-1.77.29.18.38.28-.18.07-1.76-1.04-3.06-1.17-4.84-1.75.59.11,1.18.23,1.76.38-.18-.33-3.7-.69-3.52-1.02-1.65-.17-.25.21-.18.32-.95-.21-1.91-.41-2.86-.62.01,0,0-.02-.01-.03-.04,0-.08,0-.11,0-.88-.19-1.77-.38-2.65-.57.32.02.6.01.96.04.43.13,1.64.41,1.8.52.31,0,.81.01.26-.18-1.87-.41-4.74-1.05-5.3-.89.01,0,.02,0,.03.01-.76-.17-1.51-.35-2.26-.54.36-.02,1.12-.02,2.5.31-.94-.35-1.3-.28-2.27-.57-.47-.02-.94-.06-1.41-.1l.88.18.03.11c-7.1-1.76-14.12-4.26-21.23-9.71-.66-.51-1.39-1.07-2.17-1.66.03.01.06.02.07,0-.99-1.05-3.52-2.89-3.81-3.31-.38-.21.54.59-.43-.06-1.39-1.12-1.13-1.03-1.9-1.78l-.89-.46c.02-.29-1.47-1.35-3.07-2.51,1.78,1.46,3.62,3.01,5.66,4.63-2.84-1.86-5.15-4.05-7.97-6.07-1.49-.88,1.28,1.06,1.36,1.25-.02,0-.04-.01-.06-.02-.43-.31-.85-.63-1.29-.95-.11-.09-.22-.17-.33-.24-.44-.32-.89-.65-1.34-.97,0,0,.01,0,.03,0-.03-.02-.04-.02-.07-.04-.22-.16-.45-.32-.67-.48-.16-.22,0-.49-.56-.87l-.18-.16c.15,0,.3,0,.45-.01.23.17.46.34.69.51-.14-.17-.28-.34-.43-.52,6.98-.18,10.57.56,14.03-.08,4.82-.89,7.7-1.9,7.46-3.77-.23-1.88-6.96-4.72-23.66-5.05,0,0-2.88.9-1.53,1.75,1.1.7-1.94,1.31-4.63,1.37-.3-.2-.6-.4-.91-.6,2.36-1.78,9.86-7.33,14.54-9.66,0,0,2.45-1.78,2.49-3.51.04-1.73.4-3.59-2.18-4.33-2.58-.74-10.63-2.72-10.63-2.72,0,0,8.41-5.94,13.64-6.73,5.23-.79,5.14-5.61,5.14-5.61,0,0-1.71-4.73-7.5-6.15-5.79-1.42-6.87-1.61-8.38-1.56-.84.03-2.13,1.16-4.95,2.45-.02-2.91.9-5.07,2.03-7.72l.17-.4c.17-.41.35-.8.52-1.18,1.18-2.62,2.11-4.7.08-7.22-2.11-2.63-6.63-4.91-11.2-4.18-4.22.67-9.48,8.13-9.8,8.59-.16.18-.19.37-.08.5.17.21.35.44,4.48-1.92,1.83-1.05,2.8-1.37,3.25-1.09.51.32.52,1.57.38,3.36-.09,1.2-1.62,7.16-3.97,15-.74.16-1.26.28-1.26.28,0,0-14.86,4.69-18.05,5.23-3.03.52-9.53-.11-9.1.75,0,0,.67,2.73,3.41,4.4,2.74,1.66,17.01,7.5,17.01,7.5,0,0-7.35,4.19-12.28,5.1-4.94.91-9.07,1.14-9.23,2.72-.16,1.57-.32,3.14,1.08,5,1.4,1.85,1.63,1.74,8.31,3.39,6.68,1.65,6.35,1.56,6.35,1.56l-9.9,6.25c-1.24.78-2.6,1.43-4.05,1.92-3.49,1.18-10.12,3.22-13.32,2.84-4.46-.53-4.05.4-4.61,1.67-.55,1.27.09,4.23,3.24,6.36,3.14,2.13,7.13,4.77,13.23,2.17,1.09-.46,2.63-1.21,4.5-2.14-6.53,9.08-12.83,17.09-16.23,20.51-4.38,4.41-12.53,12.62-21.92,18.71-17,11.03-26.17,12.03-34.13,12.12-3.23.04-5.58-1.06-6.27-2.94-.58-1.59,4.32-7.49,7.31-10.32,1.26-.95,1.88-1.44,2.16-1.72.05-.03.07-.04.08-.05v-.02c.19-.21.15-.26.11-.32-.14-.21-.17-.19-1.13.47-.36.25-.86.67-1.43,1.21-2.25,1.69-5.83,4.34-8.83,6.56l2.74-3.74-1.18.84s-4.01,2.88-6.14,4.37c-6.54,4.57-9.26,7.52-8.57,9.28.49,1.26,2.69,1.71,6.16,1.63,3.04-.07,7.06-.54,11.78-1.22,3.05-.44,7.4-1.32,13.49-2.61-7.77,2.61-19.07,5.15-32.86,4.66,11.91,1.3,27.46-1.97,36.82-5.5.68-.14,1.36-.29,2.07-.44l5.08-1.08c10.22-2.18,33.43-14.82,46.92-27.26,8.37-7.72,20.17-22.57,26.38-33.26,2.7-1,5.4-1.88,8-2.54.41.27.81.54,1.21.81,1.67,1.22,3.31,2.5,4.88,3.83,3.16,2.64,6.09,5.37,8.5,8l1.92,1.51c.01.16.11.44,1,1.23-.3-.32-.83-.84-.68-.76l3.89,3.84-.32-.48c1.14,1.32,3.57,3.37,4.73,4.84.07-.04.97.75.95.59.93.98,1.94,1.96,2.99,2.89,1.04.91,2.06,1.87,3.07,2.79,2.01,1.86,4.04,3.58,5.84,4.98-.3-.31.11-.1.27-.05,1.5.98.31.31.61.62.25-.03,1.63.8,3.73,1.84,2.1,1.05,4.94,2.24,7.92,3.25,5.99,1.99,12.51,2.97,13.95,3-.43-.07-.87-.15-.7-.17,3.28.43,6.68.74,10.1.85,1.71.05,3.42.05,5.12-.05.85-.06,1.69-.14,2.53-.27.84-.16,1.66-.29,2.49-.81.43-.31.66-.81.69-1.33.04-.5-.04-.96-.16-1.39M263.87,251.61c.02.08.03.15.04.22-.07-.22-.16-.44-.26-.67.04.07.11.21.22.45M180.77,212.44c.69.48,1.43,1.03,2.21,1.64-.67-.51-1.45-1.07-2.27-1.63.02,0,.04,0,.06-.01M183.1,214.18s-.04-.03-.06-.05c.02.02.04.03.06.05M186.13,216.82l-.05-.15c.34.29.68.6,1.03.9-.31-.24-.64-.49-.98-.75M207.02,220.48s-.06-.07-.03-.08c.9.48,2.03,1.67,2.64,2.22-.52-.4-1.06-.81-1.62-1.24-.33-.32-.66-.62-.99-.9M185.52,205.03c-.08,0-.16,0-.24-.02,0,0,0,0-.01,0,0,0,.04-.03.1-.08.05.03.1.07.15.1M195.06,225.03c-.54-.5-.8-.77-.92-.91.75.73,1.5,1.45,2.24,2.18-.33-.29-.75-.68-1.33-1.26M202.59,232.86c-.92-1.12-1.56-1.4-2.25-2.32l.57.32c-.75-.72-2.56-2.64-3.45-3.44,0-.01.02-.02.04-.02,1.83,1.8,3.58,3.54,5.18,5.12-.35-.24.87,1.17-.1.34M202.85,232.67c.92.91,1.79,1.77,2.59,2.55,0,.02.03.05.04.07-.69-.51-2.28-2.19-2.63-2.62M264.14,254.06c-.04.23-.19.49-.51.71-.17.1-.39.18-.63.25.26-.1.49-.21.65-.34.29-.22.46-.55.52-.96,0,.11,0,.21-.04.34"/>
  <path class="cls-1" d="M143.75,399.13c1.27-6.12,4.5-13.67,9.62-14.32,5.12-.65,3.67-3.98,3.67-3.98,0,0-3.95-8.82-6.25-9.97-2.3-1.16-13.05-3.87-15.3-3.56-2.25.31-.3.79-2.71,3.28-2.4,2.49-14.41,13.98-18.93,15.72-4.52,1.75-6.38,2.09-10.61,2.04-4.24-.06-1.97.42-1.97.42,0,0-2.14.32,1.02,1.65,3.17,1.32,5.93,2.12,8.42,5.19,2.49,3.07,11.98,5.21,14.93,4.86,2.96-.34,4.03-.94,4.03-.94,0,0-1.76.89-.29,4.85,1.47,3.96,2.39,6.56,5.64,11.53,3.25,4.96,1.89,10.2,1.89,10.2,0,0-.26,4.87-7.96-.17-7.69-5.04-8.28-6.19-8.98-8.54s-2.64-7.97-7.12-9.12c-4.48-1.15-4.09-.12-5.16,1.64-1.07,1.76-3.2,6.59-2.61,8.63.59,2.04,2.85,22.13,2.54,32.89-.31,10.76-.02,17.72-.31,24.14-.29,6.43-2.24,16.72-3.62,20.33-1.38,3.62,1.02,9.64,5.86,14.31,4.83,4.66,13.81,14.17,13.8,6.11,0-8.06.85-35.39,4.59-55.22,0,0-2.53,5.82-4.18,10.46-1.65,4.64-6.01,15.7-6.6,11.96-.58-3.74-.17-16.58.99-27.79,1.16-11.21.97-14.01.59-25.97,0,0,4.97-.07,8.95,5.93,3.99,6,7.08,19.09,10.19,16.88,3.11-2.21,10.24-4.67,13.14-16.25,2.9-11.58,3.95-15.77-1.62-23.76-5.57-7.99-6.95-7.3-5.68-13.42"/>
  <path class="cls-1" d="M255.52,446.88c-3.51-3.32-14.24-3.73-18.38-4.29-4.13-.57-9.84-4.36-9.84-4.36,1.42,1.4,6.98,6.52,6.98,6.52-7.66-.41-17.46,1.34-25.34,3.2.02-1.81.03-3.65.05-5.52.32-.31.62-.62.91-.94,4.83-5.33,9.77-5.57,13.52-6.79-.21,3.06,4.13.14,8.17-2.69,4.04-2.83,5.29-7.36,7.64-12.74,2.35-5.38,5.3-8.82,9.31-13.02,4.01-4.2,3.58-3.56,3.61-7.35.03-3.79-3.49-7.29-8.11-10.77-4.62-3.48-8.07-3.78-13.17-4.35-5.1-.57-19.83,2.96-19.83,2.96,0,0-.57.11-1.51.29.04-3.7.09-7.01.13-9.8,19.63-8.78,17.2-10.7,16.99-11.48-.22-.79-2.04-3.78-5.49-4.9-3.39-1.1-1.76-3.3-11.04.31.15-3.92.31-5.83.86-7.73.83-2.86.32-5.84-3.57-7.4-3.89-1.56-14.01-3.73-16.81-3.07-2.8.66-2.42,1.44-2.42,1.44,0,0-.69,1.42,1.79,3.6,2.48,2.18,3.54,2.37,4.11,5.66.11.65.16,5.21.18,12.2-6.75,1.64-13.13,2.93-15.47,3.39-.35.07-5.19,0-6.43.6-.35.17-.54.8-.65,1.16.09,1.14.66,2.18,1.57,2.92,1.03.83,1.82,1.58,3.53,2.16,1.61.55,3.9,1.13,5.9,2.04,2.59,1.18,4.74,2.65,4.74,2.65,0,0-20.95,16.34-25.17,21.68-3.7,4.68-1.9,9.5-.73,11.76l1.65,4.43s-.02,0,1.59,5.85c1.67,6.07,2.72,7.82,5.65,13.52,4.44,8.65,14.03,7.38,14.03,7.38,0,0-.05-.04-.12-.1,3.89-.46,8.26-2.17,8.26-2.17-5.2,6.09-18.98,13.69-21.69,15.01-2.71,1.32-6.95,2.77-9.28,3.08s-5.08.24-6.72.54c-1.64.3.2,3,4.14,6.96,3.94,3.96,6.85,3.97,10.12,4.08,3.28.11,14.72-6.56,20.81-9.87,1.24-.67,2.68-1.26,4.18-1.78.06,6.19.15,10.86.3,13.15.89,14.12,2.96,48.13,3.6,57.01s.61-13.47.61-13.47l2.42,28,3.35-32.69s.37,16.64.04,22.35c-.33,5.71,3.84-32.23,4.14-58.93.05-4.94.12-11.4.18-18.71,5.06-.98,19.2-3.42,28.57-2.26,11.58,1.44,17.06.53,20.82-.86,3.76-1.4.78-4.58-2.73-7.9M220.8,427.73c-3.27-1.57-6.28-1.09-10.44.23-.36.11-.78.25-1.24.39.02-2.05.04-4.1.06-6.14.37-.21.72-.4,1.04-.56,4.96-2.45,11.5-5.49,18.68-10.22.32-.21.6-.41.87-.6-1.24,4.4-2.66,9.24-3.75,12.46-1.68,4.97-5.22,4.45-5.22,4.45M223.73,391.84c3.64-1.02,6.94,1.01,6.94,1.01,0,0,3.41,1.84,2.57,4.64-.83,2.8-.33,1.78-1.7,6.89-.15.55-.31,1.15-.48,1.78-.98-.47-2.29-.82-3.27-1.24-2.79-1.2-12.53-1.16-16.92-.8-.42.03-.93.12-1.52.25.03-3.31.07-6.5.1-9.54,3.94-.75,11.63-2.25,14.29-3M165.7,400.6c2.75-3.12,14.45-9.49,28.56-16.24,0,2.06-.01,4.19-.02,6.36-4.63,1.47-9.07,3.1-11.71,4.19-2.96,1.22-7.8,4.79-11.27,7.97-1.4,1.28-2.5,2.63-3.45,3.97-.72-.28-5.54-2.37-2.12-6.25M177.49,436.45c-1.4-3.28-3.57-11.58-5.08-17.79,3.49,2.32,18.85,4.85,18.85,4.85-2.03,5.81-8.88,10.24-13.77,12.94M183.33,412.68c-5.15,1.21-9.28,2.59-11.54,3.4-.41-1.74-.73-3.16-.92-4.03-.85-3.95-.52-4.84.2-7.2.72-2.36,5.4-7.14,9.86-6.04,4.46,1.1,9.44.19,9.44.19l3.84-.86c-.01,3.65-.02,7.39-.03,11.16-4.01,1.38-7.94,2.68-10.85,3.37"/>
  <path class="cls-1" d="M104.01,323.38l.41-.66.82-1.33c1.12-1.77,2.26-3.56,3.5-5.28-1.42,1.83-2.77,3.81-4.09,5.82-.33.51-.65.98-.99,1.54-.35.6-.68,1.21-.91,1.87-.49,1.29-.76,2.65-.8,3.96-.12,2.64.48,5.07,1.23,7.19.78,2.11,1.77,3.93,2.78,5.42-.05.46.94,2.73,2.12,4.79,1.18,2.07,2.51,3.94,2.61,3.98,1.17,1.46,2.38,2.9,3.66,4.33l.39.42.29.31.33.25c.18.14.37.27.58.39.2.13.41.24.64.34.89.41,1.99.58,2.98.38,2.01-.4,3.37-1.63,4.51-2.81,2.25-2.45,3.82-5.27,5.32-8.13,2.92-5.77,5.28-11.94,7.43-18.29.47-1.43,1.1-3.36,1.75-5.65.16-.57.33-1.16.49-1.81.17-.72.27-1.33.37-2.04.1-.69.16-1.39.25-1.94.1-.56.25-1.01.52-1.66.25-.7.35-1.5.11-2.22-.04-.18-.11-.3-.17-.46-.06-.14-.15-.33-.15-.33l-.1-.17c-.06-.09-.13-.17-.2-.23l-.09-.08s.09,0,.12,0c.1.01.2.02.28.04l.1.03s0,0,.05.01l.52.08c.69.11,1.32.35,1.96.5.64.14,1.21.4,1.76.63.55.23,1.09.43,1.54.73.46.28.91.52,1.31.77.37.29.71.56,1.02.81.4.28.73.64,1.07.99.33.36.71.67.98,1.09-.23-.34-.44-.56-.62-.74-.17-.18-.32-.33-.46-.48-.14-.15-.28-.3-.45-.48-.19-.17-.44-.35-.75-.61,1.67,1.19,3.04,2.66,4.01,4.34,1,1.67,1.75,3.45,2.19,5.32-.12-.66,0-.82-.44-2.36.2.62.4,1.24.52,1.89.33.84.67,2.3.86,3.82.21,1.51.26,3.07.3,4.07-.05-.22-.09.07-.12.58-.01.26-.03.57-.04.9-.02.33-.07.66-.1.99l.12-.51c-.18,2.5-1.13,5.15-2.49,7.5-1.35,2.37-3.07,4.47-4.68,6.17-.44.48-.83.79-1.06.98-1.05,1.08-2.14,2.12-3.28,3.11.19-.31-2.99,2.27-1.36.85-2.53,2.26-5.44,4.13-8.11,5.96-.15.09-.31.18-.47.27-.5.15-.99.3-1.49.44l.14.35c-.08.04-.15.09-.23.13l-7.07,3.89,7.75-2.15c.08-.02.17-.05.25-.07l.14.36c.45-.26.89-.52,1.33-.79,2.09-.6,4.19-1.23,6.3-1.92,2.68-.9,5.37-1.81,8.01-3.08,1.32-.65,2.57-1.4,3.77-2.22,1.2-.82,2.36-1.7,3.46-2.65,2.21-1.88,4.21-3.99,5.91-6.32l-.23.21c1.28-1.74,2.3-3.52,3.14-5.49.86-1.96,1.42-4.21,1.55-6.82,0-1.59-.23-3.43-.58-5.12-1.03-6.22-4.04-12.42-7.15-15.65-2.59-2.68-6.01-5.05-10.71-6.55-.07-.08.25,0,.66.14.5.18,1.12.41,1.29.4-.5-.28-1.58-.69-2.51-.92l.18.08c-.4-.12-1.02-.28-1.64-.42-.61-.16-1.23-.31-1.7-.43.22-.02-.16-.14.45-.04l-1.15-.22c-.15,0-.3-.02.03.06-.55-.07-1.09-.14-1.5-.24-.03-.02-.43-.06-1.01-.11-.58-.02-1.34-.04-2.1-.07-1.5.03-2.75.05-2.87.06-.4,0-.65,0-.89-.02.08,0,.15,0,.24-.01.73-.05,1.69-.05,2.63-.06,1.87,0,3.62.14,3.07.09-.35-.08-2.73-.21-5.08-.12-2.35.08-4.64.36-4.91.31-.61.08-1.35.18-1.2.23-1.04.09.3-.16-.45-.14-.02.01.07.03-.17.05h-.72c-.79.23-1.79.37-2.77.62-.98.27-1.98.53-2.74.92.44-.25.92-.57,1.98-.91l.2-.02c.15-.06,1.02-.34.98-.38-.52.11-.99.24-1.47.38-.48.14-.96.28-1.46.53-.2.05-.42.12-.59.16,0,0,.03,0,.03.02-.36.09-.32.07-.21,0,.01-.01.03-.02.07-.04-.17.02-.5.11-.92.28-.41.2-.91.45-1.44.73-.55.26-1.06.65-1.59.95-.53.31-1,.65-1.41.91-.45.35-.03.06-.58.5-1.6,1.15-2.67,2.02-4.1,3.52-.38.55-.39.6.21.07-.35.38-.72.74-1.05,1.14.73-1.24-2,2.12-1.18.77-.34.32-.89,1.08-1.38,1.8,0,.1-.02.26-.64,1.17-.92,1.21-.69.93-1.44,1.95-.22.21,0-.19-.07-.18-.98,1.68-1.04,1.35-1.99,2.9-.29.49-.71,1.22-1.07,1.84-.35.66-.62,1.29-.57,1.33-.64,1.57-.65,1.57-.72,1.37-.11.45-.26.89-.33,1.35.21-1.1.53-2.21,1.08-3.24.14-.25.27-.53.41-.76M113.42,329.26c.07.12.2-.21.34-.48l-.11.09c.12-.27.24-.55.35-.84.12-.3.29-.62.43-.93.29-.62.58-1.22.85-1.74.07-.15.17-.23.23-.28l.45-1.02c.08.14.56-.73.38-.23.25-.8.76-1.46,1.04-2.2.75-1.16,1.58-2.29,2.57-3.3.98-1.01,2.11-1.9,3.32-2.69h-.09c.43-.28.8-.61,1.24-.87.23-.14.42-.26.64-.37.22-.11.47-.2.72-.28l.32-.2.17-.1c.06-.03.13-.1.16-.03.15.13.26.29.37.46.25.67.5,1.91.3,4.06-.07.77-.22,1.84-.4,3.07-.12.03.04-.42-.06-.5-.1.12-.14.4-.16.63l.03-.04c0,.21-.03.62-.16.82-.05-.06-.11.03-.1-.12l-.06.28s.03.08.05,0c.03.14-.02.27-.08.36-.07.02.01,1.53-.02,1.48-.02.1-.05.15-.07.21.04-.51.08-1.67.06-1.46-.09.16-.08,2.33-.23,2.43-.02.15-.04.33.03.31-.08.24-.11-.1-.2.07,0,0,.04,0,.02.05l-.11.16c.02.41-.21.95-.17,1.39-.05-.13-.14-.29-.15-.57l.04-.04s0-.26-.06-.27c-.09.24-.12.45-.11.73-.03.04-.06.1-.08.13,0,0,.02,0,.03,0-.06.08-.06.07-.08.03,0,0,0-.01-.01-.02-.22.12-.08,1-.27,1.43,0,.14.03.02.03.19-.17.45-.3.75-.45,1.22.05.17.08.19.2.03l-.11.36c-.14-.38-.36.63-.49.22-.07.09-.14.31-.15.52.05.03.13.09.07.34-.16.34-.11.26-.25.53-.09.05-.09-.06-.15-.06-.02.47-.25.35-.35.78-.05.27-.18.79-.06.83-.1.35-.19.33-.28.26l-.1.28c.27-.92.55-1.88.84-2.85-.47,1.01-.96,2.1-1.31,3.14-.34,1.01-.58,2.05-.44,3.02-.52.01-1.47,1.9-1.38,1.97-.08.44-.17.87-.29,1.29-.12.43-.26.86-.43,1.27-.08.21-.17.41-.26.6-.03.08-.06.14-.09.22-.08.14-.17.29-.32.34-.18.05-.26-.18-.36-.29l-.07-.11s-.01-.04-.12-.18c-.17-.22-.33-.44-.49-.67-.32-.45-.62-.92-.92-1.38-.46-.72-1.29-2.08-1.9-3.5-.62-1.42-1-2.88-1.02-3.67-.02-.23-.06-.46-.06-.68,0,.38.02.38.04.77-.07-.23-.15-.46-.22-.69-.04-.23-.09-.45-.13-.67-.11-.45-.11-.87-.12-1.3-.08.14-.15.16-.28.52l.08-.44c-.22-.43.04-1.35.04-1.82M126.5,321.61c.05-.25.1-.12.14-.09,0,.05-.02.1-.02.16-.04.01-.09,0-.12-.07M147.27,304.65c.99.31.52.24.39.25-.22-.07-.43-.14-.65-.2-.05-.06,0-.09.26-.05"/>
  <path class="cls-1" d="M164.82,278.82c-.03.08-.12.31.06.44.05.04.1.06.16.06.19,0,.45-.22,1.05-.7.88-.71,2.34-1.9,3.81-2.49,1.44-.57,1.93-.59,2.33-.6.3,0,.59-.02,1.14-.25l.27-.11c1.37-.56,4.57-1.87,6.43-4.12,1.13-1.37,2.87-2.51,4.4-3.53,1.24-.82,2.41-1.59,3.16-2.4,1.17-1.26.92-3.3.76-4.11-.21-1.05-.69-2.24-1.31-2.51-.27-.12-.61-.45-1.03-.86-.96-.93-2.4-2.34-4.85-3.07-2.3-.68-8.54,2.54-13.1,4.89-.74.38-1.44.74-2.06,1.06-1.97.99-2.61,1.16-3.07,1.29-.38.1-.68.18-1.42.6-.19.1-.36.21-.53.31-.03-.03-.05-.07-.08-.1-1.66-1.89-10.66-11.48-13.35-11.52-1-.02-1.35-.25-1.62-.44-.34-.23-.59-.35-1.21-.13-.22.08-.39.26-.5.51-.13.32-.11.72.04,1.02,1.26,2.49,5.42,11.21,6.23,18.7.46,4.26.56,7.29.64,9.72.09,2.68.15,4.45.65,6,1.01,3.07,6.53,13.81,10.56,16.69,2.81,2,4.23,2.61,5.42,2.58.51-.01.98-.14,1.5-.32.23-.08,23.13-8.36,24.58-11.6.59-1.31.63-1.76.67-2.24.05-.55.12-1.14,1.2-3.41,2.14-3.82,4.88-13.94,6.95-21.62.7-2.6,1.31-4.85,1.76-6.35,1.52-5.06,3.21-8.44,3.87-9.66.21-.39.34-.83.39-1.3.22-2.09.41-7.28-2.48-10.25-3.33-3.44-7-6.55-18.33-9.89-11.04-3.25-23.08,6.47-24.41,7.59-1.68,1.41-6.85,10.46-8.12,13.22-.74,1.61-.8,1.74-.63,1.93.13.15.31.1.47.05.21-.06.5-.14.83.03,1.27.68,1.86.2,4.43-2.16,2.53-2.32,6.62-1.86,6.66-1.86h.03s.03,0,.03,0c3.6-.6,12.3-2.28,15.23-4.86.63-.55,1.1-1.03,1.48-1.41,1.22-1.23,1.68-1.69,4.29-1.89.49-.05.87.09,1.17.4,1.23,1.21,1.01,4.92.8,8.5-.08,1.28-.15,2.61-.16,3.78-.02,5.6-2.1,24.87-3.34,27.38-.93,1.89-1.36,2.12-3.15,3.1-.04.02-.08.05-.12.07-.48.2-.95.42-1.39.67-3.94,2.27-14.41,5.84-14.51,5.88l-.06.03s-.7.49-1.37.17c-.55-.26-1.25-1.14-1.47-3.83-.1-1.27-.21-2.64-.32-4.02-.33-4.04-.72-8.94-.77-10.45l.05.04-.02-.56c0-.09-.04-1.07-.25-2.37,2.21,1.15,4.57,2.5,6.19,3.46.17.53-1.29,2.3-2.37,3.61-1.02,1.24-1.99,2.42-2.3,3.22"/>
  <path class="cls-1" d="M104.74,28.29c1.46.12,2.79-.26,4.18-.41.02-.3.04-.59.06-.89-1.87-.75-3.66-1.67-5.61-2.21-14.44-3.97-28.82-6-42.98-6.3-8.81-.19-8.75-.05-9.71,4.95.48.11.97.29,1.43.33,17.55,1.53,35.1,3.07,52.63,4.54"/>
  <path class="cls-1" d="M89.11,5.3c8.34,6.59,17.24,12.77,23.93,20.57.56.65,1.97,1.13,2.99,1.68.42-.07.84-.14,1.26-.2-.95-1.31-1.82-2.64-2.88-3.93-4.48-5.43-8.91-10.88-13.57-16.27-3.7-4.28-7.87-7.71-12.86-7.07-1.04.13-2.12.2-3.19.3.93,1.22,1.81,2.45,2.8,3.66.37.45,1,.85,1.52,1.27"/>
  <path class="cls-1" d="M157.85,94.55c-20.53,4.33-40.49,9.67-60.91,11.5-4.88.39-9.71.49-14.23,0-18.08-1.66-20.45-13.42-20.85-29.35-8.33,14.45-6.4,32.02,9.92,39.5,7.83,3.36,16.31,4.36,24.83,3.86.32,1.31,1.07,2.39,1.12,2.46l.04.06.07.02c5.07,1.68,5.09,3.34,5.12,5.25,0,.61.02,1.25.19,1.91.2.76.31,1.71.37,2.55-1.3.43-2.61.87-3.92,1.33-30.54,10.66-54.6,20.78-61.25,23.63-.47.2-1.47.44-2.63.73-3.01.73-5.36,1.36-5.84,2.21-.8,1.43,2.3,3.49,4.39,4.87,3.11,2.06,9.26,4.23,13.09,4.15.84-.02,1.57-.15,2.13-.41.44-.21,1.67-.8,3.49-1.69,9.24-4.5,34.97-17.01,50.87-23.63.25,4.49.74,10.1,1.7,15.45,1.73,9.64,2.85,15.68,3.07,16.59,2.53,10.29,8.3,31.53,8.36,31.75l.54,1.97-.81-19.81,3.41,23.22.46-.03.14-14.09,3,8.54.24-.52c.99-2.16.08-21.15-.93-40.4-.26-4.99-.47-8.94-.51-10.51-.13-5.81.55-12.98,1.31-18.95,13.45-3.47,26.54-4.57,39.67-3.35,11.83,1.1,39.67,3.16,42.79-1.42.38-.56.4-1.2.06-1.9-2.36-4.78-11.31-9.89-15.05-11.87-.82-.43-1.77-.65-2.75-.64-2.53.04-9.01.25-14.67,1.2-1.39.23-3.67.47-6.57.77-8.66.9-23.79,2.46-41.88,6.68.09-.5.16-.88.22-1.14.81-3.95-8.15-6.77-10.71-7.49.03-.05.03-.1.03-.13,0-.11,0-.24-.41-.4,5.43-1.45,10.69-3.29,15.59-5.28,10.02-4.33,19.71-9.71,27.74-17.21"/>
  <path class="cls-1" d="M99.26,46.51c10.79-2.99,27.14-5.72,36.2,1.93,6.16,5.9.96,16.14-3.2,22.46-8.09,12.67-23.03,20.41-38.16,21.52-4.87.26-10.06.38-14.61-1.71,3.89,3.58,9.34,4.93,14.43,5.83,10.68,1.64,21.87-.13,31.62-5.13,17.5-8.87,36.7-35.05,20.08-53.07-15.23-14.89-41.06-9.95-58.2-2.66-28.94,12.55-51.94,37.18-65.33,65.47,21.41-23.38,46.47-45.5,77.16-54.65"/>
  <path class="cls-1" d="M84.12,322.35c-20.76-.07-39.2-7.86-54.6-24.62-5.75-6.26-10.7-13.56-16.11-20.29-.78-.97-2.07-1.35-3.12-2-.02,1.43-.39,3-.01,4.27,6.09,20.55,18.98,33.39,34.89,42.72,8.25,4.84,16.96,8.02,26.12,8.5,4.82.25,9.71-.94,14.52-1.79,1.24-.22,2.52-1.44,3.42-2.6.71-.91.87-2.43,1.27-3.67-.99-.2-1.98-.5-2.97-.57-1.13-.09-2.27.02-3.41.05"/>
  <path class="cls-1" d="M38.67,355.84c-12.23-10.64-20.71-24.82-27.36-40.74-3.33-7.98-6.98-15.78-10.81-24.39-1.49,11.21.51,21.29,4,30.72,7.44,20.11,19.07,36.3,34.97,47.79,3.88,2.81,8.48,4.34,12.88,5.93,1.15.41,2.81-1.17,4.23-1.84-.78-1.55-1.27-3.59-2.4-4.58-5.07-4.45-10.42-8.46-15.51-12.89"/>
  <path class="cls-1" d="M71.31,354.15c-7.59-5.05-15.6-9.3-22.82-14.98-13.19-10.38-23.5-24.49-32.99-39.31-3.86-6.02-6.76-12.9-10.12-19.38-.16-.32-.52-.49-.79-.74-.33.13-.67.25-1,.38,1.27,5.29,2.12,10.79,3.88,15.85,8.56,24.56,23.46,42.72,42.32,56.4,4.96,3.59,10.88,5.35,16.44,7.69,1.35.57,3.08.47,4.47.01.94-.31,2.08-1.69,2.22-2.77.13-.94-.79-2.59-1.62-3.14"/>
  <path class="cls-1" d="M64.75,216.6c1.56-.71,3.11-2.36,3.72-4.01.25-.67-2.03-3.36-3.01-3.28-1.47.13-2.81,1.89-5.1,3.64,2.09,1.8,3.75,3.93,4.39,3.64"/>
  <path class="cls-1" d="M36.14,289.94c2.96,1.86,6.34,3,9.53,4.47.11-.29.22-.58.33-.87-2.13-3.48-4.9-6.72-6.29-10.5-5.34-14.54-1.79-20.35,9.37-29.98,6.57-5.66,13.77-10.54,20.22-16.33,7.25-6.51,10.33-14.83,10.13-25.1-.85,1.7-1.51,2.82-2,4.02-4.41,10.76-12.56,16.68-23.21,19.35-11.84,2.97-20.72,9.65-27.16,20.69-6.26,10.74-3.54,26.29,9.08,34.25"/>
  <path class="cls-1" d="M75.38,178.51c-4.07,5.59-5.03,12.25-5.01,19,0,1.51,1.9,3.03,2.93,4.54.93-1.3,2.27-2.47,2.71-3.93,2.27-7.58,4.3-15.23,6.46-23-2.98-.74-5.33.98-7.09,3.4"/>
</svg>